<svg>

<symbol id="logo"  viewBox="0 0 343 114" fill='none' xmlns="http://www.w3.org/2000/svg">


  <path fill="#FEFEFE" fill-rule="evenodd" d="M49.472 21.415c19.638 0 35.557 15.873 35.557 35.454 0 19.58-15.919 35.453-35.557 35.453-19.637 0-35.557-15.873-35.557-35.453 0-19.58 15.92-35.454 35.557-35.454Z" clip-rule="evenodd"/>
  <path fill="#043566" fill-rule="evenodd" d="M49.472 23.708c18.368 0 33.258 14.847 33.258 33.16 0 18.315-14.89 33.161-33.258 33.161-18.367 0-33.257-14.846-33.257-33.16 0-18.314 14.89-33.16 33.257-33.16Z" clip-rule="evenodd"/>
  <path fill="#FEFEFE" fill-rule="evenodd" d="M49.472 25.548c17.349 0 31.413 14.023 31.413 31.32 0 17.299-14.064 31.321-31.413 31.321-17.348 0-31.412-14.022-31.412-31.32 0-17.298 14.064-31.32 31.412-31.32Zm0 1.786c16.36 0 29.622 13.223 29.622 29.535 0 16.312-13.262 29.535-29.622 29.535S19.851 73.181 19.851 56.869c0-16.312 13.262-29.535 29.621-29.535Z" clip-rule="evenodd"/>
  <path fill="#FEFEFE" d="m49.94 41.245 4.524 7.811v.002l4.054 7.002v-.001l.45.776a.54.54 0 0 1 .038.066l4.504 7.778v.002l4.992 8.62H30.443l4.992-8.62v-.002l4.991-8.62 4.055-7v-.003l4.991-8.62.469.809ZM48.535 72.22l-4.053-7v-.001l-4.055-7.001-4.054 7.002h-.001l-4.054 7h16.217Zm-7.17-14.54 4.054 6.999 4.054 7.002 4.055-7.002 4.053-7H41.365Zm13.099 7.54-4.052 7h16.216l-4.053-7-4.055-7.002-4.055 7.002h-.001Zm-.935-15.623h-.001l-4.055-7.002-4.054 7.002h-.001l-4.054 7h16.218l-4.053-7Z"/>
  <path fill="#043566" d="M190.346 39.864c0-.72.114-1.479.342-2.278.299-1.071.754-1.998 1.365-2.785a6.557 6.557 0 0 1 2.312-1.868c.931-.456 1.988-.685 3.177-.685 1.593 0 2.877.467 3.857 1.405.979.938 1.47 2.18 1.47 3.726 0 1.287-.318 2.53-.955 3.732-.638 1.204-1.506 2.13-2.599 2.78-1.093.649-2.33.972-3.714.972-1.197 0-2.203-.258-3.018-.774-.811-.515-1.389-1.153-1.728-1.915a5.657 5.657 0 0 1-.509-2.31Zm2.624-.048c0 .839.269 1.542.805 2.105.539.567 1.246.85 2.123.85.713 0 1.398-.223 2.054-.668.659-.448 1.201-1.125 1.632-2.032.428-.91.644-1.79.644-2.652 0-.96-.273-1.714-.815-2.261-.545-.547-1.236-.82-2.078-.82-1.29 0-2.341.573-3.153 1.715-.808 1.145-1.212 2.397-1.212 3.763Zm11.351.048c0-.72.114-1.479.342-2.278.299-1.071.754-1.998 1.365-2.785a6.548 6.548 0 0 1 2.312-1.868c.931-.456 1.988-.685 3.177-.685 1.593 0 2.877.467 3.856 1.405.979.938 1.47 2.18 1.47 3.726 0 1.287-.317 2.53-.955 3.732-.637 1.204-1.506 2.13-2.599 2.78-1.093.649-2.329.972-3.713.972-1.198 0-2.204-.258-3.018-.774-.812-.515-1.389-1.153-1.728-1.915a5.657 5.657 0 0 1-.509-2.31Zm2.623-.048c0 .839.27 1.542.806 2.105.539.567 1.245.85 2.123.85.712 0 1.398-.223 2.054-.668.659-.448 1.2-1.125 1.632-2.032.428-.91.643-1.79.643-2.652 0-.96-.272-1.714-.814-2.261-.545-.547-1.237-.82-2.078-.82-1.291 0-2.342.573-3.153 1.715-.808 1.145-1.213 2.397-1.213 3.763Zm11.352.048c0-.72.114-1.479.341-2.278.3-1.071.755-1.998 1.366-2.785a6.545 6.545 0 0 1 2.311-1.868c.931-.456 1.988-.685 3.177-.685 1.593 0 2.878.467 3.857 1.405.979.938 1.47 2.18 1.47 3.726 0 1.287-.317 2.53-.955 3.732-.638 1.204-1.506 2.13-2.599 2.78-1.093.649-2.33.972-3.713.972-1.198 0-2.204-.258-3.018-.774-.812-.515-1.39-1.153-1.728-1.915a5.657 5.657 0 0 1-.509-2.31Zm2.623-.048c0 .839.269 1.542.805 2.105.539.567 1.246.85 2.123.85.713 0 1.399-.223 2.054-.668.659-.448 1.201-1.125 1.632-2.032.429-.91.644-1.79.644-2.652 0-.96-.272-1.714-.814-2.261-.545-.547-1.237-.82-2.078-.82-1.291 0-2.342.573-3.153 1.715-.809 1.145-1.213 2.397-1.213 3.763ZM97.282 61.115l5.014-5.192h3.157l-4.59 5.46 1.645 5.636h-2.68l-2.546-5.904Zm-5.306.013 5.306-5.205h3.13l-4.642 5.44 1.698 5.656h-2.6l-2.892-5.891Zm18.867-11.205h13.025l-3.975 17.975h-3.904l3.312-14.963h-5.222l-2.109 9.51a15.374 15.374 0 0 1-1.017 3.06c-.42.912-.964 1.585-1.636 2.02-.672.431-1.561.649-2.67.649-.743 0-1.614-.092-2.609-.276l.69-3.059c.685.096 1.092.147 1.22.147 1.074 0 1.791-.883 2.149-2.653.018-.1.035-.201.062-.305l2.684-12.105Zm18.548 8.586-3.635-.29a5.169 5.169 0 0 1 2.176-2.702c1.034-.649 2.4-.975 4.107-.975 1.773 0 3.086.339 3.931 1.013.849.678 1.273 1.502 1.273 2.477 0 .393-.035.811-.11 1.25-.076.444-.332 1.607-.774 3.49-.367 1.557-.548 2.649-.548 3.272 0 .557.106 1.172.314 1.854h-3.63a6.792 6.792 0 0 1-.266-1.473 5.823 5.823 0 0 1-1.879 1.33 5.24 5.24 0 0 1-2.14.47c-1.141 0-2.082-.356-2.825-1.068-.743-.711-1.114-1.623-1.114-2.74 0-1.247.406-2.247 1.224-2.992.818-.749 2.277-1.2 4.378-1.356 1.773-.142 2.958-.31 3.554-.506.155-.494.235-.887.235-1.18 0-.38-.159-.695-.482-.95-.319-.255-.796-.38-1.428-.38-.663 0-1.19.125-1.574.38-.385.251-.65.611-.787 1.076Zm3.541 3.288a7.833 7.833 0 0 1-.893.164c-1.866.213-3.086.527-3.656.941a1.426 1.426 0 0 0-.611 1.205c0 .418.155.766.469 1.054.31.285.721.427 1.229.427a3.34 3.34 0 0 0 1.588-.393c.499-.26.871-.594 1.114-1.004.247-.41.464-1.05.654-1.92l.106-.474Zm10.815-3.213-3.263-.548c.761-2.297 2.534-3.444 5.319-3.444 2.056 0 3.524.364 4.4 1.092.879.728 1.317 1.603 1.317 2.616 0 1.083-.407 1.924-1.22 2.53-.814.608-2.357 1.16-4.629 1.658-1.53.343-2.503.627-2.919.85-.415.217-.623.551-.623 1 0 .397.212.727.641.987.429.259.995.389 1.693.389 1.663 0 2.689-.628 3.078-1.883l3.502.535c-.381 1.31-1.115 2.28-2.202 2.913-1.088.631-2.613.945-4.576.945-1.902 0-3.303-.402-4.205-1.209-.902-.808-1.353-1.72-1.353-2.732 0-.69.19-1.293.566-1.812a3.802 3.802 0 0 1 1.503-1.222c.628-.297 1.791-.644 3.497-1.046 1.809-.414 2.91-.732 3.308-.945.397-.206.597-.565.597-1.076a.866.866 0 0 0-.482-.811c-.323-.18-.805-.268-1.446-.268-1.322 0-2.153.493-2.503 1.48Zm22.046 3.891h-9.343a5.248 5.248 0 0 0-.013.322c0 .875.265 1.578.791 2.113a2.604 2.604 0 0 0 1.928.804c1.247 0 2.22-.603 2.918-1.808l3.316.527c-.65 1.264-1.516 2.21-2.604 2.841-1.088.632-2.304.95-3.657.95-1.852 0-3.36-.556-4.518-1.665-1.163-1.113-1.742-2.582-1.742-4.414 0-1.787.521-3.377 1.569-4.774 1.424-1.888 3.462-2.829 6.106-2.829 1.685 0 3.025.494 4.019 1.481.995.988 1.49 2.373 1.49 4.151 0 .854-.088 1.62-.26 2.301Zm-3.135-2.134a6.72 6.72 0 0 0 .013-.36c0-.974-.23-1.707-.69-2.196-.455-.49-1.07-.732-1.843-.732-.77 0-1.46.276-2.07.832-.61.553-1.021 1.373-1.238 2.456h5.828Zm7.22-5.473h3.524l-.279 1.327c.752-.59 1.459-1.017 2.118-1.272a5.778 5.778 0 0 1 2.114-.38c1.445 0 2.608.472 3.488 1.413.88.946 1.318 2.352 1.318 4.222 0 2.352-.761 4.343-2.282 5.967-1.3 1.385-2.843 2.08-4.624 2.08-1.835 0-3.219-.695-4.157-2.084l-1.463 6.727h-3.71l3.953-18Zm2.228 7.473c0 1.03.266 1.829.792 2.394.53.569 1.15.853 1.866.853.619 0 1.216-.213 1.79-.636.575-.427 1.053-1.13 1.429-2.117.38-.983.57-1.9.57-2.74 0-.98-.248-1.733-.747-2.256-.496-.523-1.128-.786-1.893-.786-.716 0-1.366.238-1.954.72-.588.48-1.043 1.188-1.366 2.12-.323.934-.487 1.75-.487 2.448Zm16.497-12.418h13.026l-3.975 17.975h-3.904l3.311-14.963h-5.221l-2.109 9.51a15.438 15.438 0 0 1-1.017 3.06c-.421.912-.964 1.585-1.636 2.02-.673.431-1.561.649-2.671.649-.743 0-1.614-.092-2.609-.276l.69-3.059c.685.096 1.092.147 1.22.147 1.075 0 1.791-.883 2.149-2.653.018-.1.036-.201.062-.305l2.684-12.105Zm13.53 12.569c0-2.423.716-4.352 2.153-5.79 1.437-1.44 3.325-2.16 5.664-2.16 2.025 0 3.608.532 4.749 1.594 1.136 1.063 1.706 2.49 1.706 4.289 0 2.113-.712 3.946-2.135 5.485-1.424 1.544-3.33 2.314-5.717 2.314-1.296 0-2.445-.247-3.445-.736-.999-.494-1.746-1.193-2.237-2.092a5.988 5.988 0 0 1-.738-2.904Zm10.585-2.531c0-.841-.257-1.515-.77-2.021-.512-.507-1.171-.762-1.98-.762-.801 0-1.513.239-2.132.711-.619.473-1.1 1.163-1.445 2.063-.345.904-.518 1.737-.518 2.494 0 .941.266 1.686.801 2.238.535.553 1.207.829 2.016.829 1.017 0 1.866-.419 2.555-1.251.982-1.176 1.473-2.611 1.473-4.301Zm9.917-1.377-3.263-.548c.761-2.297 2.534-3.444 5.319-3.444 2.056 0 3.524.364 4.4 1.092.879.728 1.317 1.603 1.317 2.616 0 1.083-.407 1.924-1.22 2.53-.814.608-2.357 1.16-4.629 1.658-1.53.343-2.503.627-2.919.85-.415.217-.623.551-.623 1 0 .397.212.727.641.987.429.259.995.389 1.693.389 1.663 0 2.689-.628 3.078-1.883l3.502.535c-.381 1.31-1.115 2.28-2.202 2.913-1.088.631-2.613.945-4.576.945-1.902 0-3.303-.402-4.205-1.209-.902-.808-1.353-1.72-1.353-2.732 0-.69.19-1.293.566-1.812a3.795 3.795 0 0 1 1.503-1.222c.628-.297 1.791-.644 3.497-1.046 1.809-.414 2.91-.732 3.308-.945.398-.206.596-.565.596-1.076a.865.865 0 0 0-.481-.811c-.323-.18-.805-.268-1.446-.268-1.322 0-2.154.493-2.503 1.48Zm12.314-3.716h3.718l-1.839 7.733c-.226.929-.336 1.506-.336 1.736 0 .377.133.699.398.97.265.273.606.407 1.021.407.297 0 .588-.063.88-.184.288-.122.584-.31.889-.561a5.03 5.03 0 0 0 .822-.858c.243-.322.469-.745.681-1.272.146-.389.319-.975.509-1.753l1.481-6.218h3.714l-3.126 13.03h-3.466l.366-1.674c-1.397 1.335-2.918 2-4.567 2-1.039 0-1.861-.31-2.454-.925-.597-.615-.897-1.443-.897-2.477 0-.451.159-1.347.477-2.69l1.729-7.264Zm22.505 8.134 3.608.553c-.597 1.523-1.472 2.682-2.639 3.477-1.163.795-2.512 1.192-4.046 1.192-1.751 0-3.139-.498-4.165-1.49-1.026-.991-1.539-2.355-1.539-4.096 0-1.418.31-2.761.933-4.025.619-1.263 1.557-2.255 2.808-2.983 1.251-.724 2.622-1.088 4.116-1.088 1.623 0 2.918.402 3.882 1.21.969.803 1.512 1.861 1.632 3.175l-3.528.36c-.089-.732-.323-1.272-.708-1.615-.385-.347-.884-.519-1.508-.519-.716 0-1.388.255-2.007.761-.624.511-1.101 1.273-1.433 2.285-.331 1.013-.499 1.962-.499 2.85 0 .773.199 1.368.592 1.786.398.419.893.628 1.49.628.593 0 1.168-.205 1.72-.615.549-.41.982-1.026 1.291-1.846Zm8.22-8.134h3.519l-.318 1.561c1.366-1.26 2.803-1.887 4.306-1.887 1.04 0 1.84.205 2.401.61.566.411.924.976 1.079 1.696.478-.657 1.159-1.201 2.052-1.645a6.215 6.215 0 0 1 2.776-.66c1.101 0 1.959.284 2.574.848.614.565.919 1.31.919 2.243-.004.448-.132 1.222-.389 2.322l-1.799 7.942h-3.714l1.786-7.942c.221-.995.336-1.565.349-1.698 0-.373-.115-.666-.349-.883-.23-.214-.579-.322-1.043-.322-.933 0-1.769.464-2.503 1.397-.535.665-.99 1.85-1.366 3.544l-1.305 5.904h-3.714l1.742-7.896c.199-.908.297-1.498.297-1.77 0-.343-.124-.627-.367-.849-.248-.222-.588-.33-1.022-.33-.407 0-.827.117-1.255.347-.434.23-.814.544-1.137.95-.327.401-.606.92-.84 1.552-.106.297-.287.966-.53 2.008l-1.318 5.988h-3.714l2.883-13.03Zm23.823 0h3.718l-1.839 7.733c-.226.929-.336 1.506-.336 1.736 0 .377.133.699.398.97.265.273.606.407 1.021.407.296 0 .588-.063.88-.184.287-.122.584-.31.889-.561a5.03 5.03 0 0 0 .822-.858c.243-.322.469-.745.681-1.272.146-.389.318-.975.509-1.753l1.481-6.218h3.714l-3.126 13.03h-3.467l.367-1.674c-1.397 1.335-2.918 2-4.567 2-1.039 0-1.862-.31-2.454-.925-.597-.615-.898-1.443-.898-2.477 0-.451.16-1.347.478-2.69l1.729-7.264Zm15.97 0h3.652l-1.229 5.549c.694-.009 1.198-.126 1.512-.352.314-.222.721-.753 1.225-1.59.982-1.644 1.751-2.657 2.304-3.038.557-.38 1.481-.569 2.776-.569h.964l-.504 2.41h-.451c-.38 0-.654.067-.822.201-.168.138-.403.431-.703.892-.801 1.234-1.411 2-1.826 2.3a3.978 3.978 0 0 1-1.371.633c.906.154 1.556.895 1.954 2.226l1.278 4.368h-3.497l-1.101-3.85c-.23-.765-.478-1.246-.747-1.435-.27-.192-.743-.288-1.411-.288l-1.234 5.573h-3.652l2.883-13.03Zm18.416 6.946-5.041 5.205h-3.157l4.563-5.473-1.645-5.623h2.68l2.6 5.891Zm5.305-.013-5.358 5.218h-3.104l4.669-5.452-1.725-5.644h2.627l2.891 5.878Z"/>


</symbol>

<symbol id="insta" viewBox="0 0 32 32" xmlns="http://www.w3.org/2000/svg">

  <path fill="#043566" d="M15.504 7.552A7.935 7.935 0 0 0 7.557 15.5c0 4.4 3.548 7.948 7.947 7.948A7.935 7.935 0 0 0 23.45 15.5c0-4.4-3.548-7.948-7.946-7.948Zm0 13.115a5.176 5.176 0 0 1-5.167-5.167 5.172 5.172 0 0 1 5.167-5.167 5.172 5.172 0 0 1 5.165 5.167 5.176 5.176 0 0 1-5.165 5.167Zm10.124-13.44a1.85 1.85 0 0 1-1.853 1.854 1.854 1.854 0 1 1 1.854-1.854Zm5.263 1.881c-.117-2.483-.685-4.683-2.503-6.495C26.576.801 24.376.233 21.894.109c-2.56-.145-10.229-.145-12.788 0-2.475.118-4.675.685-6.494 2.497C.794 4.418.233 6.618.11 9.101c-.145 2.56-.145 10.231 0 12.79.117 2.484.685 4.684 2.503 6.496 1.82 1.812 4.012 2.38 6.494 2.504 2.56.145 10.229.145 12.788 0 2.482-.117 4.682-.685 6.494-2.504 1.811-1.812 2.379-4.012 2.503-6.495.145-2.56.145-10.224 0-12.784Zm-3.306 15.53a5.23 5.23 0 0 1-2.946 2.947c-2.04.809-6.881.622-9.135.622-2.255 0-7.103.18-9.136-.622a5.231 5.231 0 0 1-2.946-2.947c-.81-2.04-.623-6.883-.623-9.138s-.18-7.104.623-9.138a5.23 5.23 0 0 1 2.946-2.947c2.04-.809 6.88-.622 9.136-.622 2.254 0 7.102-.18 9.135.622a5.23 5.23 0 0 1 2.946 2.947c.81 2.04.623 6.883.623 9.138s.187 7.104-.623 9.138Z"/>

</symbol>


<symbol id="triangle" viewBox="0 0 32 32" xmlns="http://www.w3.org/2000/svg">

  <path fill="#E1E9F1" fill-opacity=".46" d="m574.015 21.364-139.882 206.3v.057L308.759 412.626l-.018-.027-13.91 20.516a13.83 13.83 0 0 0-1.174 1.731L154.376 640.264v.057L0 868h1177l-154.37-227.679v-.057L868.259 412.599l-.018.027-125.374-184.905v-.057L588.502 0l-14.487 21.364Zm43.505 818.058 125.347-184.866.018-.027 125.374-184.908 125.392 184.935.032-.015 125.357 184.881H617.52Zm221.72-384.021L713.894 640.264v.003L588.502 825.202 463.11 640.266v-.002L337.76 455.401h501.48Zm-405.079 199.14.004.003-.032.012 125.346 184.866H57.963L183.32 654.541l.029.015 125.392-184.935 125.392 184.935.028-.015Zm28.917-412.6.032.012L588.502 57.021l125.392 184.932.028-.012 125.357 184.881H337.721l125.357-184.881Z"/>

</symbol>

</svg>


