<svg width="343" height="114" viewBox="0 0 343 114" fill="none" xmlns="http://www.w3.org/2000/svg">
<path fill-rule="evenodd" clip-rule="evenodd" d="M49.4724 21.4153C69.11 21.4153 85.0294 37.2883 85.0294 56.8687C85.0294 76.4491 69.11 92.3221 49.4724 92.3221C29.8348 92.3221 13.9153 76.4491 13.9153 56.8687C13.9153 37.2883 29.8348 21.4153 49.4724 21.4153Z" fill="#FEFEFE"/>
<path fill-rule="evenodd" clip-rule="evenodd" d="M49.4724 23.7083C67.84 23.7083 82.7298 38.5547 82.7298 56.8687C82.7298 75.1827 67.84 90.0291 49.4724 90.0291C31.1049 90.0291 16.215 75.1827 16.215 56.8687C16.215 38.5547 31.1049 23.7083 49.4724 23.7083Z" fill="url(#paint0_linear_28_52)"/>
<path fill-rule="evenodd" clip-rule="evenodd" d="M49.4724 25.5481C66.8209 25.5481 80.8847 39.5709 80.8847 56.8688C80.8847 74.1667 66.8209 88.1895 49.4724 88.1895C32.1238 88.1895 18.0601 74.1667 18.0601 56.8688C18.0601 39.5709 32.1238 25.5481 49.4724 25.5481ZM49.4724 27.3336C65.8319 27.3336 79.094 40.5569 79.094 56.8688C79.094 73.1807 65.8319 86.404 49.4724 86.404C33.1128 86.404 19.8507 73.1807 19.8507 56.8688C19.8507 40.5569 33.1128 27.3336 49.4724 27.3336Z" fill="#FEFEFE"/>
<path d="M49.9407 41.245L54.4639 49.0563V49.0584L58.5179 56.0596L58.5185 56.0586L58.9682 56.8354C58.9824 56.8563 58.995 56.8781 59.0062 56.9009L63.5099 64.6788V64.681L68.5017 73.3018H50.4095H48.5352H30.443L35.4347 64.681V64.6788L40.4262 56.0586L40.4268 56.0596L44.4808 49.0584V49.0563L49.4723 40.436L49.9407 41.245ZM48.534 72.2197L44.4808 65.22L44.4803 65.2189L40.4262 58.2176L36.3716 65.22L36.3706 65.2194L32.3171 72.2197H48.534ZM41.3646 57.6792L45.4177 64.6788V64.6789L49.4723 71.6813L53.5269 64.6789V64.6788L57.5801 57.6792H41.3646ZM54.4629 65.2194L54.4628 65.2195L54.4639 65.22L50.4107 72.2197H66.6274L62.574 65.2194L62.5731 65.22L58.5185 58.2176L54.4639 65.22L54.4629 65.2194ZM53.5279 49.5968L53.5269 49.5973L49.4723 42.5951L45.4177 49.5973L45.4168 49.5968L41.3633 56.5971H57.5814L53.5279 49.5968Z" fill="#FEFEFE"/>
<path d="M190.346 39.8644C190.346 39.1446 190.46 38.3852 190.688 37.5861C190.987 36.515 191.442 35.5884 192.053 34.8007C192.664 34.013 193.437 33.3923 194.365 32.9333C195.296 32.477 196.353 32.2476 197.542 32.2476C199.135 32.2476 200.419 32.7151 201.399 33.6531C202.378 34.5909 202.869 35.8321 202.869 37.3793C202.869 38.6656 202.551 39.9096 201.914 41.1111C201.276 42.3154 200.408 43.2419 199.315 43.8908C198.222 44.5397 196.985 44.8628 195.601 44.8628C194.404 44.8628 193.398 44.6049 192.583 44.0892C191.772 43.5735 191.194 42.936 190.855 42.1737C190.517 41.4114 190.346 40.6407 190.346 39.8644ZM192.97 39.8161C192.97 40.6548 193.239 41.3576 193.775 41.9215C194.314 42.4882 195.021 42.7716 195.898 42.7716C196.611 42.7716 197.296 42.5477 197.952 42.1029C198.611 41.6552 199.153 40.9779 199.584 40.0712C200.012 39.1615 200.228 38.2803 200.228 37.4189C200.228 36.4583 199.955 35.7046 199.413 35.1576C198.868 34.6108 198.177 34.3388 197.335 34.3388C196.045 34.3388 194.994 34.9112 194.182 36.0531C193.374 37.1979 192.97 38.4503 192.97 39.8161ZM204.321 39.8644C204.321 39.1446 204.435 38.3852 204.663 37.5861C204.962 36.515 205.417 35.5884 206.028 34.8007C206.639 34.013 207.411 33.3923 208.34 32.9333C209.271 32.477 210.328 32.2476 211.517 32.2476C213.11 32.2476 214.394 32.7151 215.373 33.6531C216.352 34.5909 216.843 35.8321 216.843 37.3793C216.843 38.6656 216.526 39.9096 215.888 41.1111C215.251 42.3154 214.382 43.2419 213.289 43.8908C212.196 44.5397 210.96 44.8628 209.576 44.8628C208.378 44.8628 207.372 44.6049 206.558 44.0892C205.746 43.5735 205.169 42.936 204.83 42.1737C204.492 41.4114 204.321 40.6407 204.321 39.8644ZM206.944 39.8161C206.944 40.6548 207.214 41.3576 207.75 41.9215C208.289 42.4882 208.995 42.7716 209.873 42.7716C210.585 42.7716 211.271 42.5477 211.927 42.1029C212.586 41.6552 213.127 40.9779 213.559 40.0712C213.987 39.1615 214.202 38.2803 214.202 37.4189C214.202 36.4583 213.93 35.7046 213.388 35.1576C212.843 34.6108 212.151 34.3388 211.31 34.3388C210.019 34.3388 208.968 34.9112 208.157 36.0531C207.349 37.1979 206.944 38.4503 206.944 39.8161ZM218.296 39.8644C218.296 39.1446 218.41 38.3852 218.637 37.5861C218.937 36.515 219.392 35.5884 220.003 34.8007C220.613 34.013 221.386 33.3923 222.314 32.9333C223.245 32.477 224.302 32.2476 225.491 32.2476C227.084 32.2476 228.369 32.7151 229.348 33.6531C230.327 34.5909 230.818 35.8321 230.818 37.3793C230.818 38.6656 230.501 39.9096 229.863 41.1111C229.225 42.3154 228.357 43.2419 227.264 43.8908C226.171 44.5397 224.934 44.8628 223.551 44.8628C222.353 44.8628 221.347 44.6049 220.533 44.0892C219.721 43.5735 219.143 42.936 218.805 42.1737C218.467 41.4114 218.296 40.6407 218.296 39.8644ZM220.919 39.8161C220.919 40.6548 221.188 41.3576 221.724 41.9215C222.263 42.4882 222.97 42.7716 223.847 42.7716C224.56 42.7716 225.246 42.5477 225.901 42.1029C226.56 41.6552 227.102 40.9779 227.533 40.0712C227.962 39.1615 228.177 38.2803 228.177 37.4189C228.177 36.4583 227.905 35.7046 227.363 35.1576C226.818 34.6108 226.126 34.3388 225.285 34.3388C223.994 34.3388 222.943 34.9112 222.132 36.0531C221.323 37.1979 220.919 38.4503 220.919 39.8161Z" fill="#043566"/>
<path d="M97.282 61.1154L102.296 55.9228H105.453L100.863 61.3832L102.508 67.0191H99.8287L97.282 61.1154ZM91.9762 61.1279L97.282 55.9228H100.412L95.7698 61.3622L97.4676 67.0191H94.8679L91.9762 61.1279ZM110.843 49.9229H123.868L119.893 67.8978H115.989L119.301 52.9354H114.079L111.97 62.4459C111.714 63.5756 111.373 64.5965 110.953 65.5045C110.533 66.4166 109.989 67.0902 109.317 67.5254C108.645 67.9564 107.756 68.1739 106.647 68.1739C105.904 68.1739 105.033 68.0819 104.038 67.8978L104.728 64.8392C105.413 64.9354 105.82 64.9857 105.948 64.9857C107.022 64.9857 107.739 64.1029 108.097 62.3329C108.115 62.2325 108.132 62.132 108.159 62.0275L110.843 49.9229ZM129.391 58.5086L125.756 58.2199C126.172 57.0651 126.897 56.1655 127.932 55.517C128.966 54.8684 130.332 54.5421 132.039 54.5421C133.812 54.5421 135.125 54.8809 135.97 55.5547C136.819 56.2325 137.243 57.0567 137.243 58.0317C137.243 58.425 137.208 58.8434 137.133 59.2827C137.057 59.7262 136.801 60.8894 136.359 62.7722C135.992 64.3287 135.811 65.4208 135.811 66.0443C135.811 66.6007 135.917 67.2157 136.125 67.8978H132.495C132.353 67.425 132.265 66.9313 132.229 66.425C131.685 66.9982 131.058 67.4417 130.35 67.7555C129.643 68.0694 128.926 68.2242 128.21 68.2242C127.069 68.2242 126.128 67.8685 125.385 67.1573C124.642 66.4459 124.271 65.5338 124.271 64.4166C124.271 63.1698 124.677 62.1698 125.495 61.425C126.313 60.676 127.772 60.2241 129.873 60.0693C131.646 59.927 132.831 59.7597 133.427 59.563C133.582 59.0693 133.662 58.676 133.662 58.3831C133.662 58.0024 133.503 57.6885 133.18 57.4333C132.861 57.178 132.384 57.0525 131.752 57.0525C131.089 57.0525 130.562 57.178 130.178 57.4333C129.793 57.6843 129.528 58.0442 129.391 58.5086ZM132.932 61.7973C132.707 61.8559 132.411 61.9103 132.039 61.9606C130.173 62.174 128.953 62.4877 128.383 62.902C127.976 63.2032 127.772 63.6049 127.772 64.107C127.772 64.5255 127.927 64.8727 128.241 65.1614C128.551 65.4459 128.962 65.5882 129.47 65.5882C130.032 65.5882 130.562 65.4584 131.058 65.1949C131.557 64.9354 131.929 64.6007 132.172 64.1906C132.419 63.7806 132.636 63.1405 132.826 62.2702L132.932 61.7973ZM143.747 58.5839L140.484 58.0358C141.245 55.7388 143.018 54.5923 145.803 54.5923C147.859 54.5923 149.327 54.9563 150.203 55.6843C151.082 56.4124 151.52 57.2869 151.52 58.2995C151.52 59.3831 151.113 60.2241 150.3 60.8308C149.486 61.4375 147.943 61.9899 145.671 62.4877C144.141 62.8308 143.168 63.1154 142.752 63.3371C142.337 63.5546 142.129 63.8894 142.129 64.3371C142.129 64.7346 142.341 65.0651 142.77 65.3246C143.199 65.5839 143.765 65.7137 144.463 65.7137C146.126 65.7137 147.152 65.0861 147.541 63.8309L151.043 64.3664C150.662 65.6761 149.928 66.6468 148.841 67.2786C147.753 67.9103 146.228 68.2242 144.265 68.2242C142.363 68.2242 140.962 67.8224 140.06 67.015C139.158 66.2074 138.707 65.2953 138.707 64.2827C138.707 63.5924 138.897 62.9899 139.273 62.471C139.649 61.9521 140.148 61.5421 140.776 61.2492C141.404 60.9521 142.567 60.6049 144.273 60.2031C146.082 59.789 147.183 59.4709 147.581 59.2576C147.978 59.0525 148.178 58.6928 148.178 58.1823C148.178 57.8183 148.018 57.5463 147.696 57.3706C147.373 57.1906 146.891 57.1028 146.25 57.1028C144.928 57.1028 144.097 57.5965 143.747 58.5839ZM165.793 62.4752H156.45C156.441 62.6132 156.437 62.7221 156.437 62.7973C156.437 63.6718 156.702 64.3748 157.228 64.9103C157.754 65.4459 158.4 65.7137 159.156 65.7137C160.403 65.7137 161.376 65.1112 162.074 63.9061L165.39 64.4333C164.74 65.6969 163.874 66.6425 162.786 67.2743C161.698 67.9061 160.482 68.2242 159.129 68.2242C157.277 68.2242 155.769 67.6676 154.611 66.5589C153.448 65.4459 152.869 63.9772 152.869 62.1447C152.869 60.358 153.39 58.768 154.438 57.3706C155.862 55.4835 157.9 54.5421 160.544 54.5421C162.229 54.5421 163.569 55.0358 164.563 56.0232C165.558 57.0107 166.053 58.3957 166.053 60.174C166.053 61.0275 165.965 61.7932 165.793 62.4752ZM162.658 60.3413C162.667 60.1823 162.671 60.0651 162.671 59.9814C162.671 59.0065 162.441 58.2743 161.981 57.7847C161.526 57.2952 160.911 57.0525 160.138 57.0525C159.368 57.0525 158.678 57.3287 158.068 57.8852C157.458 58.4375 157.047 59.2576 156.83 60.3413H162.658ZM169.878 54.8684H173.402L173.123 56.1948C173.875 55.6048 174.582 55.178 175.241 54.9229C175.896 54.6676 176.603 54.5421 177.355 54.5421C178.8 54.5421 179.963 55.0149 180.843 55.9563C181.723 56.9019 182.161 58.3078 182.161 60.1781C182.161 62.5295 181.4 64.5212 179.879 66.1447C178.579 67.5296 177.036 68.2242 175.255 68.2242C173.42 68.2242 172.036 67.5296 171.098 66.1405L169.635 72.8685H165.925L169.878 54.8684ZM172.106 62.3413C172.106 63.3706 172.372 64.1698 172.898 64.7346C173.428 65.3036 174.048 65.5882 174.764 65.5882C175.383 65.5882 175.98 65.3748 176.554 64.9522C177.129 64.5255 177.607 63.8224 177.983 62.8351C178.363 61.8517 178.553 60.9354 178.553 60.0944C178.553 59.1154 178.305 58.3622 177.806 57.8391C177.31 57.3162 176.678 57.0525 175.913 57.0525C175.197 57.0525 174.547 57.291 173.959 57.7722C173.371 58.2534 172.916 58.9605 172.593 59.8935C172.27 60.8266 172.106 61.6425 172.106 62.3413ZM188.603 49.9229H201.629L197.654 67.8978H193.75L197.061 52.9354H191.84L189.731 62.4459C189.474 63.5756 189.134 64.5965 188.714 65.5045C188.293 66.4166 187.75 67.0902 187.078 67.5254C186.405 67.9564 185.517 68.1739 184.407 68.1739C183.664 68.1739 182.793 68.0819 181.798 67.8978L182.488 64.8392C183.173 64.9354 183.58 64.9857 183.708 64.9857C184.783 64.9857 185.499 64.1029 185.857 62.3329C185.875 62.2325 185.893 62.132 185.919 62.0275L188.603 49.9229ZM202.133 62.4919C202.133 60.0693 202.849 58.1404 204.286 56.7011C205.723 55.2617 207.611 54.5421 209.95 54.5421C211.975 54.5421 213.558 55.0735 214.699 56.1362C215.835 57.199 216.405 58.6258 216.405 60.425C216.405 62.538 215.693 64.3706 214.27 65.9103C212.846 67.4542 210.94 68.2242 208.553 68.2242C207.257 68.2242 206.108 67.9773 205.108 67.4877C204.109 66.994 203.362 66.2953 202.871 65.3957C202.38 64.4919 202.133 63.5254 202.133 62.4919ZM212.718 59.9606C212.718 59.1195 212.461 58.4458 211.948 57.9396C211.436 57.4333 210.777 57.178 209.968 57.178C209.167 57.178 208.455 57.4165 207.836 57.8894C207.217 58.3622 206.736 59.0525 206.391 59.9521C206.046 60.8559 205.873 61.6886 205.873 62.4459C205.873 63.3873 206.139 64.132 206.674 64.6844C207.209 65.2367 207.881 65.5128 208.69 65.5128C209.707 65.5128 210.556 65.0944 211.245 64.2618C212.227 63.0861 212.718 61.6509 212.718 59.9606ZM222.635 58.5839L219.372 58.0358C220.133 55.7388 221.906 54.5923 224.691 54.5923C226.747 54.5923 228.215 54.9563 229.091 55.6843C229.97 56.4124 230.408 57.2869 230.408 58.2995C230.408 59.3831 230.001 60.2241 229.188 60.8308C228.374 61.4375 226.831 61.9899 224.559 62.4877C223.029 62.8308 222.056 63.1154 221.64 63.3371C221.225 63.5546 221.017 63.8894 221.017 64.3371C221.017 64.7346 221.229 65.0651 221.658 65.3246C222.087 65.5839 222.653 65.7137 223.351 65.7137C225.014 65.7137 226.04 65.0861 226.429 63.8309L229.931 64.3664C229.55 65.6761 228.816 66.6468 227.729 67.2786C226.641 67.9103 225.116 68.2242 223.153 68.2242C221.251 68.2242 219.85 67.8224 218.948 67.015C218.046 66.2074 217.595 65.2953 217.595 64.2827C217.595 63.5924 217.785 62.9899 218.161 62.471C218.536 61.9521 219.036 61.5421 219.664 61.2492C220.292 60.9521 221.455 60.6049 223.161 60.2031C224.97 59.789 226.071 59.4709 226.469 59.2576C226.867 59.0525 227.065 58.6928 227.065 58.1823C227.065 57.8183 226.906 57.5463 226.584 57.3706C226.261 57.1906 225.779 57.1028 225.138 57.1028C223.816 57.1028 222.984 57.5965 222.635 58.5839ZM234.949 54.8684H238.667L236.828 62.6007C236.602 63.5296 236.492 64.107 236.492 64.3371C236.492 64.7137 236.625 65.0358 236.89 65.3078C237.155 65.5798 237.496 65.7137 237.911 65.7137C238.208 65.7137 238.499 65.651 238.791 65.5296C239.079 65.4083 239.375 65.2199 239.68 64.9689C239.985 64.7179 240.259 64.4333 240.502 64.1112C240.745 63.789 240.971 63.3664 241.183 62.8392C241.329 62.4501 241.502 61.8644 241.692 61.0861L243.173 54.8684H246.887L243.761 67.8978H240.295L240.661 66.2242C239.264 67.5589 237.743 68.2242 236.094 68.2242C235.055 68.2242 234.233 67.9146 233.64 67.2994C233.043 66.6844 232.743 65.8559 232.743 64.8224C232.743 64.3706 232.902 63.4752 233.22 62.132L234.949 54.8684ZM257.454 63.0024L261.062 63.5546C260.465 65.0777 259.59 66.2367 258.423 67.0317C257.26 67.8267 255.911 68.2242 254.377 68.2242C252.626 68.2242 251.238 67.7262 250.212 66.7347C249.186 65.743 248.673 64.379 248.673 62.6384C248.673 61.2199 248.983 59.8769 249.606 58.6132C250.225 57.3496 251.163 56.358 252.414 55.6299C253.665 54.9061 255.036 54.5421 256.53 54.5421C258.153 54.5421 259.448 54.9438 260.412 55.7513C261.381 56.5547 261.924 57.6132 262.044 58.927L258.516 59.2869C258.427 58.5547 258.193 58.0149 257.808 57.6718C257.423 57.3245 256.924 57.153 256.3 57.153C255.584 57.153 254.912 57.4082 254.293 57.9145C253.669 58.425 253.192 59.1865 252.86 60.199C252.529 61.2116 252.361 62.1613 252.361 63.0484C252.361 63.8224 252.56 64.4166 252.953 64.8351C253.351 65.2535 253.846 65.4626 254.443 65.4626C255.036 65.4626 255.611 65.2577 256.163 64.8476C256.712 64.4376 257.145 63.8224 257.454 63.0024ZM265.674 54.8684H269.193L268.875 56.4292C270.241 55.1697 271.678 54.5421 273.181 54.5421C274.221 54.5421 275.021 54.7471 275.582 55.1529C276.148 55.563 276.506 56.1279 276.661 56.8476C277.139 56.1906 277.82 55.6467 278.713 55.2032C279.606 54.7639 280.53 54.5421 281.489 54.5421C282.59 54.5421 283.448 54.8266 284.063 55.3914C284.677 55.9563 284.982 56.7011 284.982 57.6342C284.978 58.0818 284.85 58.8559 284.593 59.9563L282.794 67.8978H279.08L280.866 59.9563C281.087 58.9605 281.202 58.3915 281.215 58.2576C281.215 57.8852 281.1 57.5923 280.866 57.3747C280.636 57.1614 280.287 57.0525 279.823 57.0525C278.89 57.0525 278.054 57.517 277.32 58.4501C276.785 59.1154 276.33 60.2995 275.954 61.994L274.649 67.8978H270.935L272.677 60.0024C272.876 59.0944 272.974 58.5044 272.974 58.2324C272.974 57.8894 272.85 57.6049 272.607 57.3831C272.359 57.1614 272.019 57.0525 271.585 57.0525C271.178 57.0525 270.758 57.1697 270.33 57.3999C269.896 57.6299 269.516 57.9438 269.193 58.3496C268.866 58.7514 268.587 59.2702 268.353 59.902C268.247 60.199 268.066 60.8685 267.823 61.9103L266.505 67.8978H262.791L265.674 54.8684ZM289.497 54.8684H293.215L291.376 62.6007C291.15 63.5296 291.04 64.107 291.04 64.3371C291.04 64.7137 291.173 65.0358 291.438 65.3078C291.703 65.5798 292.044 65.7137 292.459 65.7137C292.755 65.7137 293.047 65.651 293.339 65.5296C293.626 65.4083 293.923 65.2199 294.228 64.9689C294.533 64.7179 294.807 64.4333 295.05 64.1112C295.293 63.789 295.519 63.3664 295.731 62.8392C295.877 62.4501 296.049 61.8644 296.24 61.0861L297.721 54.8684H301.435L298.309 67.8978H294.842L295.209 66.2242C293.812 67.5589 292.291 68.2242 290.642 68.2242C289.603 68.2242 288.78 67.9146 288.188 67.2994C287.591 66.6844 287.29 65.8559 287.29 64.8224C287.29 64.3706 287.45 63.4752 287.768 62.132L289.497 54.8684ZM305.467 54.8684H309.119L307.89 60.4166C308.584 60.4082 309.088 60.291 309.402 60.0651C309.716 59.8434 310.123 59.312 310.627 58.4751C311.609 56.8308 312.378 55.8183 312.931 55.4375C313.488 55.0567 314.412 54.8684 315.707 54.8684H316.671L316.167 57.2785H315.716C315.336 57.2785 315.062 57.3454 314.894 57.4793C314.726 57.6174 314.491 57.9103 314.191 58.3706C313.39 59.6049 312.78 60.3706 312.365 60.6718C311.953 60.9689 311.494 61.1781 310.994 61.3036C311.9 61.4584 312.55 62.1991 312.948 63.5296L314.226 67.8978H310.729L309.628 64.0484C309.398 63.2827 309.15 62.8016 308.881 62.6132C308.611 62.4208 308.138 62.3246 307.47 62.3246L306.236 67.8978H302.584L305.467 54.8684ZM323.883 61.8141L318.842 67.0191H315.685L320.248 61.5463L318.603 55.9228H321.283L323.883 61.8141ZM329.188 61.8015L323.83 67.0191H320.726L325.395 61.5673L323.67 55.9228H326.297L329.188 61.8015Z" fill="#043566"/>
<defs>
<linearGradient id="paint0_linear_28_52" x1="66.1011" y1="28.1509" x2="32.9891" y2="85.6701" gradientUnits="userSpaceOnUse">
<stop stop-color="#324D68"/>
<stop offset="0.34902" stop-color="#3F648A"/>
<stop offset="1" stop-color="#4D7CAC"/>
</linearGradient>
</defs>
</svg>
