<svg xmlns="http://www.w3.org/2000/svg" width="22" height="23" fill="none" viewBox="0 0 22 23">
  <g clip-path="url(#a)">
    <path fill="#fff" d="m21.806 5.354-6.672 6.63 6.672 6.629c.12-.252.194-.531.194-.829V6.183c0-.298-.073-.577-.194-.829Zm-1.739-1.105H1.934c-.298 0-.577.073-.829.194l8.528 8.485c.754.754 1.98.754 2.734 0l8.528-8.485a1.911 1.911 0 0 0-.828-.194ZM.194 5.354c-.12.252-.194.531-.194.829v11.601c0 .298.073.577.194.829l6.672-6.63L.194 5.354Z"/>
    <path fill="#fff" d="m14.223 12.895-.944.944a3.226 3.226 0 0 1-4.557 0l-.945-.944-6.672 6.629c.252.12.531.194.829.194h18.133c.297 0 .576-.073.828-.194l-6.672-6.63Z"/>
  </g>
  <defs>
    <clipPath id="a">
      <rect width="22" height="22" y=".983" fill="#fff" rx="10"/>
    </clipPath>
  </defs>
</svg>
