<svg xmlns="http://www.w3.org/2000/svg" width="23" height="22" fill="none" viewBox="0 0 23 22">
  <g clip-path="url(#a)">
    <path fill="#043566" d="m22.724 4.371-6.672 6.63 6.672 6.628c.12-.252.194-.53.194-.828V5.199c0-.297-.073-.576-.194-.828Zm-1.74-1.105H2.852a1.92 1.92 0 0 0-.829.193l8.528 8.485c.754.754 1.98.754 2.734 0l8.528-8.485a1.911 1.911 0 0 0-.829-.193ZM1.112 4.371c-.12.252-.194.53-.194.828v11.602c0 .298.073.576.194.828L7.784 11 1.112 4.371Z"/>
    <path fill="#043566" d="m15.14 11.911-.944.944a3.226 3.226 0 0 1-4.557 0l-.944-.944-6.672 6.63c.252.12.531.193.829.193h18.132c.298 0 .577-.073.829-.193l-6.672-6.63Z"/>
  </g>
  <defs>
    <clipPath id="a">
      <rect width="22" height="22" x=".918" fill="#fff" rx="10"/>
    </clipPath>
  </defs>
</svg>
