<svg xmlns="http://www.w3.org/2000/svg" width="23" height="22" fill="none" viewBox="0 0 23 22">
  <g clip-path="url(#a)">
    <path fill="#043566" d="M11.918 0C7.525 0 3.95 3.574 3.95 7.968c0 5.452 7.13 13.456 7.434 13.794a.718.718 0 0 0 1.068 0c.303-.338 7.434-8.342 7.434-13.794C19.886 3.574 16.31 0 11.918 0Zm0 11.976a4.013 4.013 0 0 1-4.009-4.008 4.013 4.013 0 0 1 4.009-4.01 4.013 4.013 0 0 1 4.009 4.01 4.013 4.013 0 0 1-4.009 4.008Z"/>
  </g>
  <defs>
    <clipPath id="a">
      <rect width="22" height="22" x=".918" fill="#fff" rx="10"/>
    </clipPath>
  </defs>
</svg>
