<svg xmlns="http://www.w3.org/2000/svg" width="23" height="23" fill="none" viewBox="0 0 23 23">
  <g clip-path="url(#a)">
    <path fill="#043566" d="M19.874 15.329c-1.33-1.137-2.678-1.826-3.99-.69l-.785.685c-.573.498-1.64 2.825-5.762-1.918C5.215 8.67 7.667 7.932 8.242 7.44l.788-.687c1.306-1.138.813-2.57-.128-4.044l-.569-.893C7.387.345 6.357-.62 5.048.515l-.708.618c-.579.421-2.196 1.791-2.588 4.395-.473 3.123 1.017 6.7 4.43 10.624 3.408 3.926 6.745 5.898 9.906 5.864 2.627-.029 4.214-1.438 4.71-1.95l.71-.62c1.306-1.135.495-2.29-.835-3.43l-.8-.687Z"/>
  </g>
  <defs>
    <clipPath id="a">
      <rect width="22" height="22" x=".918" y=".017" fill="#fff" rx="10"/>
    </clipPath>
  </defs>
</svg>
