<svg xmlns="http://www.w3.org/2000/svg" width="22" height="22" fill="none" viewBox="0 0 22 22">
  <g clip-path="url(#a)">
    <path fill="#fff" d="M18.956 15.312c-1.33-1.137-2.678-1.825-3.99-.69l-.785.686c-.573.498-1.64 2.824-5.762-1.918-4.122-4.737-1.67-5.474-1.095-5.968l.788-.687c1.306-1.137.813-2.57-.128-4.043l-.569-.893C6.47.328 5.44-.638 4.13.498l-.708.618c-.579.422-2.196 1.792-2.588 4.395-.473 3.123 1.017 6.7 4.43 10.624 3.408 3.926 6.745 5.898 9.906 5.864 2.627-.028 4.214-1.438 4.71-1.95l.71-.62c1.306-1.134.495-2.29-.835-3.43l-.8-.687Z"/>
  </g>
  <defs>
    <clipPath id="a">
      <rect width="22" height="22" fill="#fff" rx="10"/>
    </clipPath>
  </defs>
</svg>
